<?xml version="1.0" encoding="UTF-8" standalone="no"?>
<!DOCTYPE svg PUBLIC "-//W3C//DTD SVG 1.1//EN"
 "http://www.w3.org/Graphics/SVG/1.1/DTD/svg11.dtd">
<!-- Generated by graphviz version 2.47.0 (20210316.0004)
 -->
<!-- Title: dependencies Pages: 1 -->
<svg width="1767pt" height="284pt"
 viewBox="0.00 0.00 1767.00 284.00" xmlns="http://www.w3.org/2000/svg" xmlns:xlink="http://www.w3.org/1999/xlink">
<g id="graph0" class="graph" transform="scale(1 1) rotate(0) translate(4 280)">
<title>dependencies</title>
<polygon fill="white" stroke="transparent" points="-4,4 -4,-280 1763,-280 1763,4 -4,4"/>
<text text-anchor="start" x="858.51" y="-42.4" font-family="Times-12" font-weight="bold" font-size="14.00">Legend</text>
<polygon fill="#ffffb3" stroke="transparent" points="645.5,-10 645.5,-30 665.5,-30 665.5,-10 645.5,-10"/>
<text text-anchor="start" x="669.13" y="-15.4" font-family="Times-12" font-size="14.00"> &#160;Declarations</text>
<polygon fill="#8dd3c7" stroke="transparent" points="758.5,-10 758.5,-30 778.5,-30 778.5,-10 758.5,-10"/>
<text text-anchor="start" x="782.23" y="-15.4" font-family="Times-12" font-size="14.00"> &#160;Module</text>
<polygon fill="#80b1d3" stroke="transparent" points="844.5,-10 844.5,-30 864.5,-30 864.5,-10 844.5,-10"/>
<text text-anchor="start" x="868.28" y="-15.4" font-family="Times-12" font-size="14.00"> &#160;Bootstrap</text>
<polygon fill="#fdb462" stroke="transparent" points="941.5,-10 941.5,-30 961.5,-30 961.5,-10 941.5,-10"/>
<text text-anchor="start" x="965.17" y="-15.4" font-family="Times-12" font-size="14.00"> &#160;Providers</text>
<polygon fill="#fb8072" stroke="transparent" points="1037.5,-10 1037.5,-30 1057.5,-30 1057.5,-10 1037.5,-10"/>
<text text-anchor="start" x="1061.23" y="-15.4" font-family="Times-12" font-size="14.00"> &#160;Exports</text>
<g id="clust1" class="cluster">
<title>cluster_AppModule</title>
<polygon fill="none" stroke="black" stroke-dasharray="1,5" points="8,-70 8,-268 1751,-268 1751,-70 8,-70"/>
</g>
<g id="clust2" class="cluster">
<title>cluster_AppModule_declarations</title>
<polygon fill="none" stroke="black" points="1445,-78 1445,-130 1743,-130 1743,-78 1445,-78"/>
</g>
<g id="clust5" class="cluster">
<title>cluster_AppModule_imports</title>
<polygon fill="none" stroke="black" points="186,-78 186,-130 1437,-130 1437,-78 186,-78"/>
</g>
<g id="clust6" class="cluster">
<title>cluster_AppModule_exports</title>
<polygon fill="none" stroke="black" points="774,-208 774,-260 960,-260 960,-208 774,-208"/>
</g>
<g id="clust7" class="cluster">
<title>cluster_AppModule_bootstrap</title>
<polygon fill="none" stroke="black" points="968,-208 968,-260 1092,-260 1092,-208 968,-208"/>
</g>
<g id="clust8" class="cluster">
<title>cluster_AppModule_providers</title>
<polygon fill="none" stroke="black" points="16,-78 16,-130 178,-130 178,-78 16,-78"/>
</g>
<!-- AppComponent -->
<g id="node1" class="node">
<title>AppComponent</title>
<polygon fill="#ffffb3" stroke="black" points="1734.94,-122 1629.06,-122 1629.06,-86 1734.94,-86 1734.94,-122"/>
<text text-anchor="middle" x="1682" y="-99.8" font-family="Times,serif" font-size="14.00">AppComponent</text>
</g>
<!-- AppModule -->
<g id="node3" class="node">
<title>AppModule</title>
<polygon fill="#8dd3c7" stroke="black" points="989.66,-187 986.66,-191 965.66,-191 962.66,-187 906.34,-187 906.34,-151 989.66,-151 989.66,-187"/>
<text text-anchor="middle" x="948" y="-164.8" font-family="Times,serif" font-size="14.00">AppModule</text>
</g>
<!-- AppComponent&#45;&gt;AppModule -->
<g id="edge1" class="edge">
<title>AppComponent&#45;&gt;AppModule</title>
<path fill="none" stroke="black" d="M1682,-122.25C1682,-145.02 1682,-181 1682,-181 1682,-181 999.83,-181 999.83,-181"/>
<polygon fill="black" stroke="black" points="999.83,-177.5 989.83,-181 999.83,-184.5 999.83,-177.5"/>
</g>
<!-- HomePublicoComponent -->
<g id="node2" class="node">
<title>HomePublicoComponent</title>
<polygon fill="#ffffb3" stroke="black" points="1611.32,-122 1452.68,-122 1452.68,-86 1611.32,-86 1611.32,-122"/>
<text text-anchor="middle" x="1532" y="-99.8" font-family="Times,serif" font-size="14.00">HomePublicoComponent</text>
</g>
<!-- HomePublicoComponent&#45;&gt;AppModule -->
<g id="edge2" class="edge">
<title>HomePublicoComponent&#45;&gt;AppModule</title>
<path fill="none" stroke="black" d="M1532,-122.28C1532,-143.32 1532,-175 1532,-175 1532,-175 1000,-175 1000,-175"/>
<polygon fill="black" stroke="black" points="1000,-171.5 990,-175 1000,-178.5 1000,-171.5"/>
</g>
<!-- ListadoRecetasComponent  -->
<g id="node12" class="node">
<title>ListadoRecetasComponent </title>
<polygon fill="#fb8072" stroke="black" points="952.36,-252 781.64,-252 781.64,-216 952.36,-216 952.36,-252"/>
<text text-anchor="middle" x="867" y="-229.8" font-family="Times,serif" font-size="14.00">ListadoRecetasComponent </text>
</g>
<!-- AppModule&#45;&gt;ListadoRecetasComponent  -->
<g id="edge11" class="edge">
<title>AppModule&#45;&gt;ListadoRecetasComponent </title>
<path fill="none" stroke="black" stroke-dasharray="5,2" d="M929.17,-187.11C929.17,-187.11 929.17,-205.99 929.17,-205.99"/>
<polygon fill="black" stroke="black" points="925.67,-205.99 929.17,-215.99 932.67,-205.99 925.67,-205.99"/>
</g>
<!-- AppComponent  -->
<g id="node13" class="node">
<title>AppComponent </title>
<polygon fill="#80b1d3" stroke="black" points="1084.44,-252 975.56,-252 975.56,-216 1084.44,-216 1084.44,-252"/>
<text text-anchor="middle" x="1030" y="-229.8" font-family="Times,serif" font-size="14.00">AppComponent </text>
</g>
<!-- AppModule&#45;&gt;AppComponent  -->
<g id="edge12" class="edge">
<title>AppModule&#45;&gt;AppComponent </title>
<path fill="none" stroke="black" stroke-dasharray="1,5" d="M982.68,-187.11C982.68,-187.11 982.68,-205.99 982.68,-205.99"/>
<polygon fill="black" stroke="black" points="979.18,-205.99 982.68,-215.99 986.18,-205.99 979.18,-205.99"/>
</g>
<!-- ApiModule -->
<g id="node4" class="node">
<title>ApiModule</title>
<polygon fill="#8dd3c7" stroke="black" points="1429.05,-122 1426.05,-126 1405.05,-126 1402.05,-122 1348.95,-122 1348.95,-86 1429.05,-86 1429.05,-122"/>
<text text-anchor="middle" x="1389" y="-99.8" font-family="Times,serif" font-size="14.00">ApiModule</text>
</g>
<!-- ApiModule&#45;&gt;AppModule -->
<g id="edge3" class="edge">
<title>ApiModule&#45;&gt;AppModule</title>
<path fill="none" stroke="black" d="M1389,-122.11C1389,-141.34 1389,-169 1389,-169 1389,-169 999.89,-169 999.89,-169"/>
<polygon fill="black" stroke="black" points="999.89,-165.5 989.89,-169 999.89,-172.5 999.89,-165.5"/>
</g>
<!-- AppRoutingModule -->
<g id="node5" class="node">
<title>AppRoutingModule</title>
<polygon fill="#8dd3c7" stroke="black" points="1330.27,-122 1327.27,-126 1306.27,-126 1303.27,-122 1201.73,-122 1201.73,-86 1330.27,-86 1330.27,-122"/>
<text text-anchor="middle" x="1266" y="-99.8" font-family="Times,serif" font-size="14.00">AppRoutingModule</text>
</g>
<!-- AppRoutingModule&#45;&gt;AppModule -->
<g id="edge4" class="edge">
<title>AppRoutingModule&#45;&gt;AppModule</title>
<path fill="none" stroke="black" d="M1266,-122.02C1266,-139.37 1266,-163 1266,-163 1266,-163 999.9,-163 999.9,-163"/>
<polygon fill="black" stroke="black" points="999.9,-159.5 989.9,-163 999.9,-166.5 999.9,-159.5"/>
</g>
<!-- HeaderComponent -->
<g id="node6" class="node">
<title>HeaderComponent</title>
<polygon fill="#8dd3c7" stroke="black" points="1183.74,-122 1180.74,-126 1159.74,-126 1156.74,-122 1062.26,-122 1062.26,-86 1183.74,-86 1183.74,-122"/>
<text text-anchor="middle" x="1123" y="-99.8" font-family="Times,serif" font-size="14.00">HeaderComponent</text>
</g>
<!-- HeaderComponent&#45;&gt;AppModule -->
<g id="edge5" class="edge">
<title>HeaderComponent&#45;&gt;AppModule</title>
<path fill="none" stroke="black" d="M1073.3,-122.24C1073.3,-137.57 1073.3,-157 1073.3,-157 1073.3,-157 999.72,-157 999.72,-157"/>
<polygon fill="black" stroke="black" points="999.72,-153.5 989.72,-157 999.72,-160.5 999.72,-153.5"/>
</g>
<!-- ListadoIngredientesComponent -->
<g id="node7" class="node">
<title>ListadoIngredientesComponent</title>
<polygon fill="#8dd3c7" stroke="black" points="1044.02,-122 1041.02,-126 1020.02,-126 1017.02,-122 851.98,-122 851.98,-86 1044.02,-86 1044.02,-122"/>
<text text-anchor="middle" x="948" y="-99.8" font-family="Times,serif" font-size="14.00">ListadoIngredientesComponent</text>
</g>
<!-- ListadoIngredientesComponent&#45;&gt;AppModule -->
<g id="edge6" class="edge">
<title>ListadoIngredientesComponent&#45;&gt;AppModule</title>
<path fill="none" stroke="black" d="M948,-122.11C948,-122.11 948,-140.99 948,-140.99"/>
<polygon fill="black" stroke="black" points="944.5,-140.99 948,-150.99 951.5,-140.99 944.5,-140.99"/>
</g>
<!-- ListadoRecetasComponent -->
<g id="node8" class="node">
<title>ListadoRecetasComponent</title>
<polygon fill="#8dd3c7" stroke="black" points="833.36,-122 830.36,-126 809.36,-126 806.36,-122 666.64,-122 666.64,-86 833.36,-86 833.36,-122"/>
<text text-anchor="middle" x="750" y="-99.8" font-family="Times,serif" font-size="14.00">ListadoRecetasComponent</text>
</g>
<!-- ListadoRecetasComponent&#45;&gt;AppModule -->
<g id="edge7" class="edge">
<title>ListadoRecetasComponent&#45;&gt;AppModule</title>
<path fill="none" stroke="black" d="M807.62,-122.24C807.62,-137.57 807.62,-157 807.62,-157 807.62,-157 896.26,-157 896.26,-157"/>
<polygon fill="black" stroke="black" points="896.26,-160.5 906.26,-157 896.26,-153.5 896.26,-160.5"/>
</g>
<!-- MenuDetalleComponent -->
<g id="node9" class="node">
<title>MenuDetalleComponent</title>
<polygon fill="#8dd3c7" stroke="black" points="648.41,-122 645.41,-126 624.41,-126 621.41,-122 493.59,-122 493.59,-86 648.41,-86 648.41,-122"/>
<text text-anchor="middle" x="571" y="-99.8" font-family="Times,serif" font-size="14.00">MenuDetalleComponent</text>
</g>
<!-- MenuDetalleComponent&#45;&gt;AppModule -->
<g id="edge8" class="edge">
<title>MenuDetalleComponent&#45;&gt;AppModule</title>
<path fill="none" stroke="black" d="M571,-122.02C571,-139.37 571,-163 571,-163 571,-163 896.21,-163 896.21,-163"/>
<polygon fill="black" stroke="black" points="896.21,-166.5 906.21,-163 896.21,-159.5 896.21,-166.5"/>
</g>
<!-- MenuTablaComponent -->
<g id="node10" class="node">
<title>MenuTablaComponent</title>
<polygon fill="#8dd3c7" stroke="black" points="475.86,-122 472.86,-126 451.86,-126 448.86,-122 330.14,-122 330.14,-86 475.86,-86 475.86,-122"/>
<text text-anchor="middle" x="403" y="-99.8" font-family="Times,serif" font-size="14.00">MenuTablaComponent</text>
</g>
<!-- MenuTablaComponent&#45;&gt;AppModule -->
<g id="edge9" class="edge">
<title>MenuTablaComponent&#45;&gt;AppModule</title>
<path fill="none" stroke="black" d="M403,-122.11C403,-141.34 403,-169 403,-169 403,-169 896.14,-169 896.14,-169"/>
<polygon fill="black" stroke="black" points="896.14,-172.5 906.14,-169 896.14,-165.5 896.14,-172.5"/>
</g>
<!-- ModalComponent -->
<g id="node11" class="node">
<title>ModalComponent</title>
<polygon fill="#8dd3c7" stroke="black" points="311.88,-122 308.88,-126 287.88,-126 284.88,-122 194.12,-122 194.12,-86 311.88,-86 311.88,-122"/>
<text text-anchor="middle" x="253" y="-99.8" font-family="Times,serif" font-size="14.00">ModalComponent</text>
</g>
<!-- ModalComponent&#45;&gt;AppModule -->
<g id="edge10" class="edge">
<title>ModalComponent&#45;&gt;AppModule</title>
<path fill="none" stroke="black" d="M253,-122.28C253,-143.32 253,-175 253,-175 253,-175 896.09,-175 896.09,-175"/>
<polygon fill="black" stroke="black" points="896.09,-178.5 906.09,-175 896.09,-171.5 896.09,-178.5"/>
</g>
<!-- AuthInterceptor -->
<g id="node14" class="node">
<title>AuthInterceptor</title>
<ellipse fill="#fdb462" stroke="black" cx="97" cy="-104" rx="72.91" ry="18"/>
<text text-anchor="middle" x="97" y="-99.8" font-family="Times,serif" font-size="14.00">AuthInterceptor</text>
</g>
<!-- AuthInterceptor&#45;&gt;AppModule -->
<g id="edge13" class="edge">
<title>AuthInterceptor&#45;&gt;AppModule</title>
<path fill="none" stroke="black" d="M97,-122.25C97,-145.02 97,-181 97,-181 97,-181 896.09,-181 896.09,-181"/>
<polygon fill="black" stroke="black" points="896.09,-184.5 906.09,-181 896.09,-177.5 896.09,-184.5"/>
</g>
</g>
</svg>
