<?xml version="1.0" encoding="UTF-8" standalone="no"?>
<!DOCTYPE svg PUBLIC "-//W3C//DTD SVG 1.1//EN"
 "http://www.w3.org/Graphics/SVG/1.1/DTD/svg11.dtd">
<!-- Generated by graphviz version 2.47.0 (20210316.0004)
 -->
<!-- Title: dependencies Pages: 1 -->
<svg width="609pt" height="211pt"
 viewBox="0.00 0.00 609.00 211.00" xmlns="http://www.w3.org/2000/svg" xmlns:xlink="http://www.w3.org/1999/xlink">
<g id="graph0" class="graph" transform="scale(1 1) rotate(0) translate(4 207)">
<title>dependencies</title>
<polygon fill="white" stroke="transparent" points="-4,4 -4,-207 605,-207 605,4 -4,4"/>
<text text-anchor="start" x="279.51" y="-42.4" font-family="Times-12" font-weight="bold" font-size="14.00">Legend</text>
<polygon fill="#ffffb3" stroke="transparent" points="66.5,-10 66.5,-30 86.5,-30 86.5,-10 66.5,-10"/>
<text text-anchor="start" x="90.13" y="-15.4" font-family="Times-12" font-size="14.00"> &#160;Declarations</text>
<polygon fill="#8dd3c7" stroke="transparent" points="179.5,-10 179.5,-30 199.5,-30 199.5,-10 179.5,-10"/>
<text text-anchor="start" x="203.23" y="-15.4" font-family="Times-12" font-size="14.00"> &#160;Module</text>
<polygon fill="#80b1d3" stroke="transparent" points="265.5,-10 265.5,-30 285.5,-30 285.5,-10 265.5,-10"/>
<text text-anchor="start" x="289.28" y="-15.4" font-family="Times-12" font-size="14.00"> &#160;Bootstrap</text>
<polygon fill="#fdb462" stroke="transparent" points="362.5,-10 362.5,-30 382.5,-30 382.5,-10 362.5,-10"/>
<text text-anchor="start" x="386.17" y="-15.4" font-family="Times-12" font-size="14.00"> &#160;Providers</text>
<polygon fill="#fb8072" stroke="transparent" points="458.5,-10 458.5,-30 478.5,-30 478.5,-10 458.5,-10"/>
<text text-anchor="start" x="482.23" y="-15.4" font-family="Times-12" font-size="14.00"> &#160;Exports</text>
<g id="clust1" class="cluster">
<title>cluster_AuthModule</title>
<polygon fill="none" stroke="black" stroke-dasharray="1,5" points="8,-70 8,-195 593,-195 593,-70 8,-70"/>
</g>
<g id="clust5" class="cluster">
<title>cluster_AuthModule_imports</title>
<polygon fill="none" stroke="black" points="301,-78 301,-130 585,-130 585,-78 301,-78"/>
</g>
<g id="clust2" class="cluster">
<title>cluster_AuthModule_declarations</title>
<polygon fill="none" stroke="black" points="16,-78 16,-130 293,-130 293,-78 16,-78"/>
</g>
<!-- LoginComponent -->
<g id="node1" class="node">
<title>LoginComponent</title>
<polygon fill="#ffffb3" stroke="black" points="285.28,-122 170.72,-122 170.72,-86 285.28,-86 285.28,-122"/>
<text text-anchor="middle" x="228" y="-99.8" font-family="Times,serif" font-size="14.00">LoginComponent</text>
</g>
<!-- AuthModule -->
<g id="node3" class="node">
<title>AuthModule</title>
<polygon fill="#8dd3c7" stroke="black" points="341.55,-187 338.55,-191 317.55,-191 314.55,-187 254.45,-187 254.45,-151 341.55,-151 341.55,-187"/>
<text text-anchor="middle" x="298" y="-164.8" font-family="Times,serif" font-size="14.00">AuthModule</text>
</g>
<!-- LoginComponent&#45;&gt;AuthModule -->
<g id="edge1" class="edge">
<title>LoginComponent&#45;&gt;AuthModule</title>
<path fill="none" stroke="black" d="M269.81,-122.11C269.81,-122.11 269.81,-140.99 269.81,-140.99"/>
<polygon fill="black" stroke="black" points="266.31,-140.99 269.81,-150.99 273.31,-140.99 266.31,-140.99"/>
</g>
<!-- RegistroComponent -->
<g id="node2" class="node">
<title>RegistroComponent</title>
<polygon fill="#ffffb3" stroke="black" points="152.27,-122 23.73,-122 23.73,-86 152.27,-86 152.27,-122"/>
<text text-anchor="middle" x="88" y="-99.8" font-family="Times,serif" font-size="14.00">RegistroComponent</text>
</g>
<!-- RegistroComponent&#45;&gt;AuthModule -->
<g id="edge2" class="edge">
<title>RegistroComponent&#45;&gt;AuthModule</title>
<path fill="none" stroke="black" d="M88,-122.11C88,-141.34 88,-169 88,-169 88,-169 244.23,-169 244.23,-169"/>
<polygon fill="black" stroke="black" points="244.23,-172.5 254.23,-169 244.23,-165.5 244.23,-172.5"/>
</g>
<!-- AuthRoutingModule -->
<g id="node4" class="node">
<title>AuthRoutingModule</title>
<polygon fill="#8dd3c7" stroke="black" points="577.17,-122 574.17,-126 553.17,-126 550.17,-122 444.83,-122 444.83,-86 577.17,-86 577.17,-122"/>
<text text-anchor="middle" x="511" y="-99.8" font-family="Times,serif" font-size="14.00">AuthRoutingModule</text>
</g>
<!-- AuthRoutingModule&#45;&gt;AuthModule -->
<g id="edge3" class="edge">
<title>AuthRoutingModule&#45;&gt;AuthModule</title>
<path fill="none" stroke="black" d="M511,-122.11C511,-141.34 511,-169 511,-169 511,-169 351.62,-169 351.62,-169"/>
<polygon fill="black" stroke="black" points="351.62,-165.5 341.62,-169 351.62,-172.5 351.62,-165.5"/>
</g>
<!-- ModalComponent -->
<g id="node5" class="node">
<title>ModalComponent</title>
<polygon fill="#8dd3c7" stroke="black" points="426.88,-122 423.88,-126 402.88,-126 399.88,-122 309.12,-122 309.12,-86 426.88,-86 426.88,-122"/>
<text text-anchor="middle" x="368" y="-99.8" font-family="Times,serif" font-size="14.00">ModalComponent</text>
</g>
<!-- ModalComponent&#45;&gt;AuthModule -->
<g id="edge4" class="edge">
<title>ModalComponent&#45;&gt;AuthModule</title>
<path fill="none" stroke="black" d="M325.42,-122.11C325.42,-122.11 325.42,-140.99 325.42,-140.99"/>
<polygon fill="black" stroke="black" points="321.92,-140.99 325.42,-150.99 328.92,-140.99 321.92,-140.99"/>
</g>
</g>
</svg>
